<?xml version="1.0" encoding="UTF-8"?>
<svg version="1.1" viewBox=".535 3.209 500 500" xmlns="http://www.w3.org/2000/svg"
    xmlns:cc="http://creativecommons.org/ns#" xmlns:dc="http://purl.org/dc/elements/1.1/"
    xmlns:rdf="http://www.w3.org/1999/02/22-rdf-syntax-ns#">
    <metadata>
        <rdf:RDF>
            <cc:Work rdf:about="">
                <dc:format>image/svg+xml</dc:format>
                <dc:type rdf:resource="http://purl.org/dc/dcmitype/StillImage" />
                <dc:title />
            </cc:Work>
        </rdf:RDF>
    </metadata>
    <path
        d="m-1.5349 3.0883v501.61h502.14v-501.61zm102.45 0.49023c38.87-0.42539 80.395 10.258 116.85 12.344 31.435 1.799 67.372-3.877 103.02-7.834 17.821-1.978 35.572-3.5251 52.648-3.4961 8.538 0.017 16.908 0.42895 25.037 1.377 4.064 0.474 8.067 1.0828 12 1.8438 1.966 0.381 3.9137 0.80077 5.8457 1.2598 0.964 0.232 1.9239 0.4707 2.8789 0.7207 0.956 0.25 2.8231 0.77116 2.8711 0.78516l-2e-3 2e-3c23.291 6.684 49.046 23.764 59.875 45.443 14.066 28.162 6.583 61.091-4.416 94.844-11.002 33.754-25.52 68.338-25.529 99.812-0.011 35.271 15.966 77.94 27.168 119.2 11.198 41.258 17.633 81.095-1.4902 110.74-12.094 18.736-35.062 22.133-60.561 21.164-25.507-0.982-53.554-6.3304-75.809-5.1094-49.286 2.707-95.571-17.681-144.92-18.717-29.475-0.619-61.081 11.226-91.238 18.846-30.155 7.61-58.851 11.009-82.549-6.5371-9.349-6.929-13.378-18.277-14.744-30.766-1.345-12.5-0.024719-26.149 1.3633-37.689 3.354-27.874 13.665-47.952 16.041-75.928 2.437-28.699-27.575-61.943-22.994-90.381 3.585-22.237 14.473-38.408 24.1-54.637 9.627-16.227 17.996-32.504 16.543-54.984-1.387-21.386-12.696-34.302-22.945-47.174-10.25-12.871-19.453-25.688-16.629-46.936 1.582-11.849 10.394-20.965 21.875-27.99 11.5-7.008 25.677-11.929 38.018-15.342 12.081-3.3405 24.742-4.7156 37.699-4.8574z"
        fill="#daeaff" />
</svg>